<svg width="59" height="38" viewBox="0 0 59 38" fill="none" xmlns="http://www.w3.org/2000/svg">
<path d="M12.0192 0.398132C17.5421 0.398132 22.0192 4.87529 22.0192 10.3981V27.8981C22.0192 28.3584 22.3923 28.7315 22.8525 28.7315C23.3128 28.7315 23.6859 28.3584 23.6859 27.8981V10.3981C23.6859 4.87528 28.163 0.398132 33.6859 0.398132H47.0192C53.4625 0.398132 58.6859 5.62148 58.6859 12.0648V16.2445C58.6859 19.0514 57.6743 21.7649 55.8359 23.8861L44.4134 37.0648H31.181L48.279 17.3366L48.3717 17.2194C48.5755 16.9367 48.6859 16.5955 48.6859 16.2445V12.0648C48.6859 11.1443 47.9397 10.3981 47.0192 10.3981H35.3525V9.5648C35.3525 9.10456 34.9794 8.73147 34.5192 8.73147C34.059 8.73147 33.6859 9.10456 33.6859 9.5648V27.0648C33.6859 32.5876 29.2087 37.0648 23.6859 37.0648H22.0192C16.4964 37.0648 12.0192 32.5876 12.0192 27.0648V9.5648C12.0192 9.10456 11.6461 8.73147 11.1859 8.73147C10.7256 8.73147 10.3525 9.10456 10.3525 9.5648V37.0648H0.352539V10.3981C0.352539 4.87528 4.82969 0.398132 10.3525 0.398132H12.0192Z" fill="white"></path>
</svg>