<svg width="272" height="40" viewBox="0 0 272 40" fill="none" xmlns="http://www.w3.org/2000/svg">
<path d="M164.608 11.2982V28.7019H160.486V11.2982H164.608Z" fill="#7E85FF"></path>
<path d="M63.6211 24.5794H79.8799V28.7015H59.499V11.7562H63.6211V24.5794Z" fill="#7E85FF"></path>
<path d="M208.346 23.3205C208.346 22.6249 207.782 22.061 207.086 22.061H195.408C192.436 22.061 190.026 19.6517 190.026 16.6796C190.026 13.7075 192.436 11.2982 195.408 11.2982H212.01V15.4201H195.408C194.712 15.4201 194.148 15.984 194.148 16.6796C194.148 17.3752 194.712 17.9391 195.408 17.9391H207.086C210.058 17.9391 212.468 20.3484 212.468 23.3205C212.468 26.2925 210.058 28.7019 207.086 28.7019H190.484V24.5799H207.086C207.782 24.5799 208.346 24.0161 208.346 23.3205Z" fill="#7E85FF"></path>
<path fill-rule="evenodd" clip-rule="evenodd" d="M182.585 11.2982C186.19 11.2982 189.111 14.2202 189.111 17.8246C189.111 21.429 186.19 24.3509 182.585 24.3509H170.105V28.7019H165.983V11.2982H182.585ZM170.105 20.229H182.585C183.913 20.229 184.99 19.1525 184.99 17.8246C184.99 16.4966 183.913 15.4201 182.585 15.4201H170.105V20.229Z" fill="#7E85FF"></path>
<path d="M101.634 20C101.634 17.4706 99.5837 15.4201 97.0542 15.4201H88.1234C85.594 15.4201 83.5435 17.4706 83.5435 20C83.5435 22.5294 85.594 24.5799 88.1234 24.5799H97.0542C99.5837 24.5799 101.634 22.5295 101.634 20ZM105.756 20C105.756 24.8059 101.86 28.7019 97.0542 28.7019H88.1234C83.3175 28.7019 79.4216 24.8059 79.4216 20C79.4216 15.1942 83.3175 11.2982 88.1234 11.2982H97.0542C101.86 11.2982 105.756 15.1942 105.756 20Z" fill="#7E85FF"></path>
<path d="M155.22 20C155.22 17.4706 153.17 15.4201 150.64 15.4201H141.709C139.18 15.4201 137.13 17.4706 137.13 20C137.13 22.5294 139.18 24.5799 141.709 24.5799H150.64C153.17 24.5799 155.22 22.5295 155.22 20ZM159.342 20C159.342 24.8059 155.446 28.7019 150.64 28.7019H141.709C136.904 28.7019 133.008 24.8059 133.008 20C133.008 15.1942 136.904 11.2982 141.709 11.2982H150.64C155.446 11.2982 159.342 15.1942 159.342 20Z" fill="#7E85FF"></path>
<path d="M213.383 21.374V11.2982H217.505V21.374C217.505 23.1446 218.94 24.5799 220.71 24.5799H232.389C234.16 24.5799 235.595 23.1446 235.595 21.374V11.2982H239.717V21.374C239.717 25.4211 236.436 28.7019 232.389 28.7019H220.71C216.663 28.7019 213.383 25.4211 213.383 21.374Z" fill="#7E85FF"></path>
<path d="M106.442 20C106.442 15.1942 110.338 11.2982 115.144 11.2982H131.403V15.4201H115.144C112.615 15.4201 110.564 17.4706 110.564 20C110.564 22.5294 112.615 24.5799 115.144 24.5799H127.395C128.091 24.5799 128.655 24.0161 128.655 23.3205C128.655 22.6249 128.091 22.061 127.395 22.061H113.999V17.9391H127.395C130.367 17.9391 132.777 20.3484 132.777 23.3205C132.777 26.2925 130.367 28.7019 127.395 28.7019H115.144C110.338 28.7019 106.442 24.8059 106.442 20Z" fill="#7E85FF"></path>
<path d="M262.747 11.2982C264.905 11.2982 266.813 12.6977 267.462 14.7555L271.858 28.7019H267.536L263.531 15.9946C263.423 15.6527 263.106 15.4201 262.747 15.4201C262.396 15.4202 262.086 15.6435 261.972 15.9709L261.951 16.0378L259.513 25.5556C259.039 27.407 257.37 28.7019 255.459 28.7019C253.516 28.7018 251.828 27.3639 251.385 25.4718L249.173 16.0335C249.089 15.6743 248.769 15.4202 248.4 15.4201C248.054 15.4202 247.747 15.6439 247.642 15.9734L243.586 28.7019H239.26L243.715 14.722C244.365 12.6828 246.259 11.2982 248.4 11.2982C250.683 11.2982 252.665 12.8702 253.186 15.0932L255.398 24.5314C255.404 24.5598 255.43 24.5799 255.459 24.5799C255.488 24.5799 255.513 24.5605 255.52 24.5328L257.958 15.0149L257.986 14.9127C258.581 12.7804 260.525 11.2982 262.747 11.2982Z" fill="#7E85FF"></path>
<path d="M24.9835 0L29.6977 3.92858L25.6236 7.32367C25.2528 7.63271 24.7141 7.63271 24.3433 7.32367L20.2692 3.92858L24.9835 0Z" fill="#7E85FF"></path>
<path fill-rule="evenodd" clip-rule="evenodd" d="M24.3433 11.3545C24.7141 11.6635 25.2528 11.6635 25.6236 11.3545L32.1162 5.94397L35.8507 9.05606L27.5442 15.9782C26.0608 17.2143 23.9061 17.2143 22.4227 15.9782L14.1163 9.05606L17.8507 5.94397L24.3433 11.3545Z" fill="#7E85FF"></path>
<path d="M24.9835 40L20.2692 36.0714L24.3433 32.6763C24.7141 32.3673 25.2528 32.3673 25.6236 32.6763L29.6977 36.0714L24.9835 40Z" fill="#7E85FF"></path>
<path fill-rule="evenodd" clip-rule="evenodd" d="M25.6236 28.6455C25.2528 28.3365 24.7141 28.3365 24.3433 28.6455L17.8507 34.056L14.1163 30.9439L22.4227 24.0218C23.9061 22.7857 26.0608 22.7857 27.5442 24.0218L35.8507 30.9439L32.1162 34.056L25.6236 28.6455Z" fill="#7E85FF"></path>
<path d="M48.9834 20L44.2691 16.0714L40.4767 19.2318C39.997 19.6316 39.997 20.3684 40.4767 20.7682L44.2691 23.9286L48.9834 20Z" fill="#7E85FF"></path>
<path fill-rule="evenodd" clip-rule="evenodd" d="M35.6398 20.7682C35.1601 20.3684 35.1601 19.6316 35.6398 19.2318L41.8507 14.056L38.1162 10.9439L30.9364 16.9271C29.0174 18.5263 29.0174 21.4737 30.9364 23.0729L38.1162 29.0561L41.8507 25.944L35.6398 20.7682Z" fill="#7E85FF"></path>
<path d="M0.983398 20.0001L5.69767 23.9287L9.49008 20.7683C9.96983 20.3685 9.96983 19.6317 9.49008 19.2319L5.69767 16.0715L0.983398 20.0001Z" fill="#7E85FF"></path>
<path fill-rule="evenodd" clip-rule="evenodd" d="M14.327 19.2319C14.8067 19.6317 14.8067 20.3685 14.327 20.7683L8.11612 25.9441L11.8506 29.0562L19.0304 23.073C20.9494 21.4738 20.9494 18.5264 19.0304 16.9272L11.8506 10.944L8.11612 14.0561L14.327 19.2319Z" fill="#7E85FF"></path>
</svg>